name ./resultDataOpenSim/trcMotMarkerGrf/sub06/grf-03-05.mot
datacolumns 19
datarows 22
range 0.51600000 0.60000000
endheader

                time	     ground_force_vx	     ground_force_vy	     ground_force_vz	     ground_force_px	     ground_force_py	     ground_force_pz	   l_ground_force_vx	   l_ground_force_vy	   l_ground_force_vz	   l_ground_force_px	   l_ground_force_py	   l_ground_force_pz	     ground_torque_x	     ground_torque_y	     ground_torque_z	   l_ground_torque_x	   l_ground_torque_y	   l_ground_torque_z	
          0.51600000	        149.08417939	        648.04081824	        -20.74735571	         -0.84707762	          0.00000000	          0.12606837	          0.00000000	          0.00000000	          0.00000000	          0.00000000	          0.00000000	          0.00000000	          0.00000000	          1.30100833	          0.00000000	          0.00000000	          0.00000000	          0.00000000	
          0.52000000	        156.96160346	        660.35126400	        -19.44266863	         -0.84676770	          0.00000000	          0.12587080	          0.00000000	          0.00000000	          0.00000000	          0.00000000	          0.00000000	          0.00000000	          0.00000000	          1.42218349	          0.00000000	          0.00000000	          0.00000000	          0.00000000	
          0.52400000	        164.79823148	        671.44333454	        -17.92560040	         -0.84645226	          0.00000000	          0.12568767	          0.00000000	          0.00000000	          0.00000000	          0.00000000	          0.00000000	          0.00000000	          0.00000000	          1.55127186	          0.00000000	          0.00000000	          0.00000000	          0.00000000	
          0.52800000	        172.58559838	        681.22060424	        -16.43520336	         -0.84612986	          0.00000000	          0.12552798	          0.00000000	          0.00000000	          0.00000000	          0.00000000	          0.00000000	          0.00000000	          0.00000000	          1.67179329	          0.00000000	          0.00000000	          0.00000000	          0.00000000	
          0.53200000	        180.32494854	        689.56936722	        -15.20655260	         -0.84579600	          0.00000000	          0.12540187	          0.00000000	          0.00000000	          0.00000000	          0.00000000	          0.00000000	          0.00000000	          0.00000000	          1.76611435	          0.00000000	          0.00000000	          0.00000000	          0.00000000	
          0.53600000	        188.01161556	        696.36831683	        -14.43128417	         -0.84544216	          0.00000000	          0.12532064	          0.00000000	          0.00000000	          0.00000000	          0.00000000	          0.00000000	          0.00000000	          0.00000000	          1.81886403	          0.00000000	          0.00000000	          0.00000000	          0.00000000	
          0.54000000	        195.62746074	        701.50684676	        -14.22048347	         -0.84506018	          0.00000000	          0.12528977	          0.00000000	          0.00000000	          0.00000000	          0.00000000	          0.00000000	          0.00000000	          0.00000000	          1.81967953	          0.00000000	          0.00000000	          0.00000000	          0.00000000	
          0.54400000	        203.13769151	        704.90889851	        -14.57812275	         -0.84465360	          0.00000000	          0.12530328	          0.00000000	          0.00000000	          0.00000000	          0.00000000	          0.00000000	          0.00000000	          0.00000000	          1.76469278	          0.00000000	          0.00000000	          0.00000000	          0.00000000	
          0.54800000	        210.49422828	        706.54828301	        -15.39789234	         -0.84423163	          0.00000000	          0.12534821	          0.00000000	          0.00000000	          0.00000000	          0.00000000	          0.00000000	          0.00000000	          0.00000000	          1.65657643	          0.00000000	          0.00000000	          0.00000000	          0.00000000	
          0.55200000	        217.64341134	        706.44575420	        -16.48800071	         -0.84380154	          0.00000000	          0.12541066	          0.00000000	          0.00000000	          0.00000000	          0.00000000	          0.00000000	          0.00000000	          0.00000000	          1.50336901	          0.00000000	          0.00000000	          0.00000000	          0.00000000	
          0.55600000	        224.53141187	        704.65368025	        -17.61492836	         -0.84336805	          0.00000000	          0.12547663	          0.00000000	          0.00000000	          0.00000000	          0.00000000	          0.00000000	          0.00000000	          0.00000000	          1.31654810	          0.00000000	          0.00000000	          0.00000000	          0.00000000	
          0.56000000	        231.10695763	        701.23812398	        -18.55030174	         -0.84293126	          0.00000000	          0.12552891	          0.00000000	          0.00000000	          0.00000000	          0.00000000	          0.00000000	          0.00000000	          0.00000000	          1.10884691	          0.00000000	          0.00000000	          0.00000000	          0.00000000	
          0.56400000	        237.32393725	        696.26245532	        -19.10883752	         -0.84249044	          0.00000000	          0.12555038	          0.00000000	          0.00000000	          0.00000000	          0.00000000	          0.00000000	          0.00000000	          0.00000000	          0.89219552	          0.00000000	          0.00000000	          0.00000000	          0.00000000	
          0.56800000	        243.14355143	        689.77443343	        -19.17441432	         -0.84205327	          0.00000000	          0.12553213	          0.00000000	          0.00000000	          0.00000000	          0.00000000	          0.00000000	          0.00000000	          0.00000000	          0.67604512	          0.00000000	          0.00000000	          0.00000000	          0.00000000	
          0.57200000	        248.53410017	        681.80141542	        -18.71488334	         -0.84163380	          0.00000000	          0.12547063	          0.00000000	          0.00000000	          0.00000000	          0.00000000	          0.00000000	          0.00000000	          0.00000000	          0.46625518	          0.00000000	          0.00000000	          0.00000000	          0.00000000	
          0.57600000	        253.46539527	        672.35469390	        -17.78133031	         -0.84124500	          0.00000000	          0.12536224	          0.00000000	          0.00000000	          0.00000000	          0.00000000	          0.00000000	          0.00000000	          0.00000000	          0.26467200	          0.00000000	          0.00000000	          0.00000000	          0.00000000	
          0.58000000	        257.89727028	        661.43809661	        -16.48697163	         -0.84089496	          0.00000000	          0.12520742	          0.00000000	          0.00000000	          0.00000000	          0.00000000	          0.00000000	          0.00000000	          0.00000000	          0.06947776	          0.00000000	          0.00000000	          0.00000000	          0.00000000	
          0.58400000	        261.76540653	        649.04614171	        -14.97037657	         -0.84058442	          0.00000000	          0.12500837	          0.00000000	          0.00000000	          0.00000000	          0.00000000	          0.00000000	          0.00000000	          0.00000000	         -0.12369934	          0.00000000	          0.00000000	          0.00000000	          0.00000000	
          0.58800000	        264.96631835	        635.13551931	        -13.35560458	         -0.84031636	          0.00000000	          0.12476328	          0.00000000	          0.00000000	          0.00000000	          0.00000000	          0.00000000	          0.00000000	          0.00000000	         -0.32008405	          0.00000000	          0.00000000	          0.00000000	          0.00000000	
          0.59200000	        267.34166818	        619.58540234	        -11.72113819	         -0.84010097	          0.00000000	          0.12446707	          0.00000000	          0.00000000	          0.00000000	          0.00000000	          0.00000000	          0.00000000	          0.00000000	         -0.52381007	          0.00000000	          0.00000000	          0.00000000	          0.00000000	
          0.59600000	        268.66476465	        602.17618240	        -10.08449829	         -0.83995095	          0.00000000	          0.12412048	         -9.77141837	         45.89966295	         -0.64911412	         -0.10256818	         -0.05000000	          0.03122299	          0.00000000	         -0.73617103	          0.00000000	          0.00000000	         -0.03890100	          0.00000000	
          0.60000000	        268.63562765	        582.58741905	         -8.40351543	         -0.83987695	          0.00000000	          0.12372749	        -31.50983741	        232.81804942	        -11.79321529	         -0.09763857	         -0.05000000	          0.03005616	          0.00000000	         -0.95446133	          0.00000000	          0.00000000	         -0.11981332	          0.00000000	
